<svg xmlns="http://www.w3.org/2000/svg" viewBox="0 0 1000 1000"><path fill="#639" d="M0 0h840a160 160 0 0 1 160 160v680a160 160 0 0 1-160 160H160A160 160 0 0 1 0 840V0Z"/><path fill="#fff" d="M358 920c-64 0-104-36-103-103V649c0-34 10-60 30-77 35-34 117-36 152 0 22 19 30 58 28 94h-74c1-14 0-36-8-44-11-14-40-13-47 3-5 8-7 20-7 36v146c0 31 10 47 32 47 10 0 17-4 22-11 8-9 9-28 8-41h74c5 70-37 119-107 118Zm234 0c-71 1-103-50-101-118h70c-2 30 8 57 33 55 11 0 18-3 23-10 8-13 10-49-2-63-9-14-39-26-55-34-23-11-40-24-50-39-23-34-21-108 11-138 31-37 113-38 144 0 19 19 28 58 26 93h-67c1-15-1-38-6-47-4-7-12-10-23-10-19 0-29 11-29 35s10 35 32 45c30 11 67 31 80 54 40 72 13 181-86 177Zm225 0c-71 1-103-50-101-118h69c-1 30 9 57 33 55 11 0 19-3 24-10 8-13 10-49-2-63-9-14-39-26-56-34-23-11-39-24-49-39-23-34-21-108 11-138 31-37 113-38 144 0 19 19 27 58 26 93h-67c0-15-1-38-7-47-4-7-11-10-22-10-20 0-29 11-29 35s10 35 32 45c29 11 67 31 80 54 40 72 13 181-86 177Z"/></svg>
